<?xml version="1.0" encoding="utf-8"?>
<!-- Generator: Adobe Illustrator 15.1.0, SVG Export Plug-In . SVG Version: 6.00 Build 0)  -->
<!DOCTYPE svg PUBLIC "-//W3C//DTD SVG 1.1//EN" "http://www.w3.org/Graphics/SVG/1.1/DTD/svg11.dtd">
<svg version="1.1" id="Layer_1" xmlns="http://www.w3.org/2000/svg" xmlns:xlink="http://www.w3.org/1999/xlink" x="0px" y="0px"
	 width="36px" height="36px" viewBox="0 0 36 36" enable-background="new 0 0 36 36" xml:space="preserve">
<g>
	<path fill="#192625" d="M36,34c0,1.1-0.9,2-2,2H2c-1.1,0-2-0.9-2-2V2c0-1.1,0.9-2,2-2h32c1.1,0,2,0.9,2,2V34z"/>
</g>
<g>
	<g>
		<path fill="#AEBF64" d="M17.896,16.938l-5.243-5.243l0.818-0.817c0.091-0.091,0.091-0.24,0-0.331l-3.13-3.13
			c-0.09-0.089-0.269-0.177-0.396-0.192L6.531,6.821c-0.128-0.014-0.22,0.077-0.205,0.205l0.403,3.414
			c0.016,0.127,0.101,0.306,0.193,0.397l3.128,3.129c0.091,0.091,0.24,0.091,0.331,0l0.81-0.81l5.243,5.243L17.896,16.938z"/>
		<path fill="#AEBF64" d="M29.639,28.684l-9.232-9.233l-1.46,1.459l9.231,9.233c0.182,0.181,0.479,0.181,0.661,0l0.801-0.801
			C29.817,29.16,29.817,28.865,29.639,28.684z"/>
	</g>
	<path fill="#AEBF64" d="M31.634,18.228c-0.578-2.411-3.07-5.605-3.935-6.661c0.06-0.089,0.054-0.212-0.025-0.291l-0.045-0.043
		l0.119-0.118c0.181-0.183,0.181-0.479,0-0.661l-0.799-0.8c-0.185-0.183-0.48-0.183-0.66,0l-0.121,0.118l-0.063-0.065
		c-0.074-0.075-0.189-0.083-0.278-0.032C24.795,8.83,21.57,6.303,19.141,5.72c0,0-0.174,0.112,0.115,0.349
		c0,0,3.981,3.206,5.445,4.804l-1,1.082l-0.031,0.316L7.261,28.682c-0.181,0.184-0.181,0.479,0,0.66l0.8,0.801
		c0.181,0.181,0.479,0.181,0.66,0l16.427-16.429l0.275-0.037l1.078-0.994c1.605,1.479,4.785,5.428,4.785,5.428
		C31.523,18.403,31.634,18.228,31.634,18.228z"/>
</g>
</svg>
