<?xml version="1.0" encoding="utf-8"?>
<!-- Generator: Adobe Illustrator 15.1.0, SVG Export Plug-In . SVG Version: 6.00 Build 0)  -->
<!DOCTYPE svg PUBLIC "-//W3C//DTD SVG 1.1//EN" "http://www.w3.org/Graphics/SVG/1.1/DTD/svg11.dtd">
<svg version="1.1" id="Layer_1" xmlns="http://www.w3.org/2000/svg" xmlns:xlink="http://www.w3.org/1999/xlink" x="0px" y="0px"
	 width="61px" height="53px" viewBox="0 0 61 53" enable-background="new 0 0 61 53" xml:space="preserve">
<rect x="0" fill="#192625" width="61" height="53"/>
<g>
	<g>
		<path fill="#AEBF64" d="M30.766,25.799l-7.587-7.587l1.184-1.183c0.133-0.131,0.133-0.347,0-0.479l-4.531-4.53
			c-0.13-0.129-0.387-0.256-0.574-0.278l-4.937-0.584c-0.185-0.021-0.318,0.111-0.296,0.296l0.584,4.939
			c0.022,0.185,0.146,0.442,0.28,0.574l4.527,4.528c0.131,0.132,0.346,0.132,0.479,0l1.17-1.171l7.587,7.585L30.766,25.799z"/>
		<path fill="#AEBF64" d="M47.758,42.795L34.398,29.434l-2.114,2.109l13.358,13.363c0.263,0.26,0.692,0.26,0.957,0l1.158-1.158
			C48.017,43.484,48.017,43.057,47.758,42.795z"/>
	</g>
	<path fill="#AEBF64" d="M50.646,27.664c-0.837-3.489-4.443-8.11-5.693-9.639c0.086-0.129,0.077-0.307-0.037-0.42l-0.065-0.062
		l0.173-0.17c0.262-0.264,0.262-0.693,0-0.957l-1.156-1.157c-0.267-0.265-0.695-0.265-0.955,0l-0.175,0.17l-0.092-0.095
		c-0.107-0.108-0.274-0.121-0.403-0.046c-1.492-1.223-6.158-4.879-9.674-5.723c0,0-0.252,0.162,0.166,0.505
		c0,0,5.762,4.639,7.88,6.952l-1.447,1.566l-0.045,0.458L15.377,42.791c-0.261,0.266-0.262,0.693,0,0.957l1.158,1.158
		c0.261,0.26,0.692,0.26,0.955,0l23.77-23.773l0.398-0.053l1.56-1.438c2.323,2.141,6.925,7.854,6.925,7.854
		C50.485,27.918,50.646,27.664,50.646,27.664z"/>
</g>
</svg>
